<svg width="26" height="24" viewBox="0 0 26 24" fill="none" xmlns="http://www.w3.org/2000/svg">
<path d="M20.7607 8H18.6643V11H15.5197V13H18.6643V16H20.7607V13H23.9053V11H20.7607V8ZM5.03779 8C5.03779 10.28 6.84069 12 9.23057 12C11.6205 12 13.4233 10.28 13.4233 8C13.4233 5.72 11.6205 4 9.23057 4C6.84069 4 5.03779 5.72 5.03779 8ZM11.327 8C11.327 9.178 10.4653 10 9.23057 10C7.9958 10 7.13418 9.178 7.13418 8C7.13418 6.822 7.9958 6 9.23057 6C10.4653 6 11.327 6.822 11.327 8ZM5.03779 18C5.03779 16.346 6.44866 15 8.18238 15H10.2788C12.0125 15 13.4233 16.346 13.4233 18V19H15.5197V18C15.5197 15.243 13.1686 13 10.2788 13H8.18238C5.29251 13 2.94141 15.243 2.94141 18V19H5.03779V18Z" fill="#2B2B2F"/>
</svg>
