<svg width="20" height="20" viewBox="0 0 20 20" fill="none" xmlns="http://www.w3.org/2000/svg">
<g id="vuesax/bold/notification">
<g id="vuesax/bold/notification_2">
<g id="notification">
<g id="Vector">
<path d="M16.1163 12.0743L15.283 10.691C15.108 10.3827 14.9496 9.79935 14.9496 9.45768V7.34935C14.9496 5.39102 13.7996 3.69935 12.1413 2.90768C11.708 2.14102 10.908 1.66602 9.99129 1.66602C9.08296 1.66602 8.26629 2.15768 7.83296 2.93268C6.20796 3.74102 5.08296 5.41602 5.08296 7.34935V9.45768C5.08296 9.79935 4.92463 10.3827 4.74963 10.6827L3.90796 12.0743C3.57463 12.6327 3.49963 13.2493 3.70796 13.816C3.90796 14.3743 4.38296 14.8077 4.99963 15.016C6.61629 15.566 8.31629 15.8327 10.0163 15.8327C11.7163 15.8327 13.4163 15.566 15.033 15.0244C15.6163 14.8327 16.0663 14.391 16.283 13.816C16.4996 13.241 16.4413 12.6077 16.1163 12.0743Z" fill="#2B2B2F"/>
<path d="M12.358 16.6743C12.008 17.641 11.083 18.3327 9.99963 18.3327C9.34129 18.3327 8.69129 18.066 8.23296 17.591C7.96629 17.341 7.76629 17.0077 7.64963 16.666C7.75796 16.6827 7.86629 16.691 7.98296 16.7077C8.17463 16.7327 8.37463 16.7577 8.57463 16.7743C9.04963 16.816 9.53296 16.841 10.0163 16.841C10.4913 16.841 10.9663 16.816 11.433 16.7743C11.608 16.7577 11.783 16.7493 11.9496 16.7243C12.083 16.7077 12.2163 16.691 12.358 16.6743Z" fill="#2B2B2F"/>
</g>
</g>
</g>
</g>
</svg>
