<svg width="20" height="20" viewBox="0 0 20 20" fill="none" xmlns="http://www.w3.org/2000/svg">
<g id="ic:baseline-block">
<path id="Vector" d="M10.0003 1.66797C5.40033 1.66797 1.66699 5.4013 1.66699 10.0013C1.66699 14.6013 5.40033 18.3346 10.0003 18.3346C14.6003 18.3346 18.3337 14.6013 18.3337 10.0013C18.3337 5.4013 14.6003 1.66797 10.0003 1.66797ZM3.33366 10.0013C3.33366 6.31797 6.31699 3.33464 10.0003 3.33464C11.542 3.33464 12.9587 3.85964 14.0837 4.74297L4.74199 14.0846C3.8268 12.9206 3.33065 11.482 3.33366 10.0013ZM10.0003 16.668C8.45866 16.668 7.04199 16.143 5.91699 15.2596L15.2587 5.91797C16.1739 7.08202 16.67 8.52056 16.667 10.0013C16.667 13.6846 13.6837 16.668 10.0003 16.668Z" fill="#FF3729"/>
</g>
</svg>
