<svg width="155" height="32" viewBox="0 0 155 32" fill="none" xmlns="http://www.w3.org/2000/svg">
<g id="Dark logo" clip-path="url(#clip0_1110_2012)">
<path id="Vector" d="M7.63191 14.4025C9.12744 14.6355 10.4684 15.9807 10.6916 17.465C11.0019 19.0517 11.313 20.6385 11.6232 22.2253C11.7247 22.7255 11.6976 23.2522 11.463 23.6813C11.2012 24.1994 10.6443 24.5458 10.0358 24.5402C9.8947 24.5376 9.75373 24.5286 9.61167 24.5134C7.89334 24.3023 6.17661 24.0842 4.45854 23.8778C2.82822 23.7006 1.34359 22.1838 1.20186 20.5669C1.01419 19.1286 0.826129 17.69 0.634636 16.2516C0.585544 15.8395 0.509282 15.4267 0.501851 15.0147C0.492372 14.3179 0.95737 13.6992 1.59743 13.4829C2.00086 13.3342 2.45978 13.3521 2.89806 13.4406C4.47615 13.7614 6.05391 14.0832 7.63191 14.4025Z" fill="#295BFF"/>
<path id="Vector_2" d="M24.6702 16.6906C26.1656 16.9235 27.5067 18.2687 27.7299 19.7531C28.0401 21.3398 28.3512 22.9266 28.6615 24.5133C28.763 25.0135 28.736 25.5402 28.5011 25.9693C28.2396 26.4874 27.6825 26.8339 27.0741 26.8283C26.933 26.8256 26.7921 26.8167 26.6499 26.8015C24.9316 26.5904 23.2149 26.3723 21.4968 26.1658C19.8665 25.9886 18.3819 24.4718 18.2401 22.8549C18.0524 21.4167 17.8645 19.978 17.673 18.5396C17.6238 18.1276 17.5476 17.7147 17.5402 17.3028C17.5306 16.606 17.9956 15.9872 18.6357 15.771C19.0392 15.6224 19.498 15.6401 19.9363 15.7287C21.5144 16.0495 23.0922 16.3714 24.6702 16.6906Z" fill="#295BFF"/>
<path id="Vector_3" d="M5.2983 6.87482C5.23527 7.92808 5.46922 9.00036 5.6102 10.0622C6.078 13.3834 6.55942 16.7037 7.02801 20.0241C7.4009 22.8568 9.606 25.487 12.2744 26.6793C13.4379 27.2075 14.68 27.2753 15.8909 27.4516C18.7214 27.8188 21.5499 28.2097 24.3798 28.5811C25.3459 28.6938 26.3178 28.8909 27.2775 28.8547C27.1132 29.5717 26.8713 30.2774 26.3899 30.8222C25.5591 31.8185 24.1474 32.2043 22.7831 31.9944C18.8927 31.4741 15.0018 30.9454 11.1118 30.4337C7.5629 29.9913 4.29256 26.7442 3.81392 23.2261C3.32307 19.733 2.81163 16.2386 2.32421 12.7456C2.12888 11.5031 1.85247 10.1627 2.37415 9.04375C2.84179 7.83602 4.0126 7.07954 5.29911 6.87402L5.2983 6.87482Z" fill="#295BFF"/>
<path id="Vector_4" d="M11.0465 11.0123C12.5419 11.2452 13.883 12.5906 14.1062 14.0749C14.4164 15.6616 14.7274 17.2483 15.0378 18.835C15.1393 19.3352 15.1122 19.862 14.8774 20.291C14.6158 20.8091 14.0588 21.1557 13.4504 21.15C13.3093 21.1475 13.1683 21.1384 13.0261 21.1232C11.3079 20.9122 9.59118 20.694 7.87311 20.4875C6.24279 20.3103 4.75816 18.7936 4.61641 17.1766C4.42876 15.7384 4.24068 14.2997 4.04919 12.8614C4.00011 12.4494 3.92385 12.0364 3.9164 11.6245C3.90694 10.9277 4.37192 10.3089 5.01198 10.0927C5.41543 9.94406 5.87433 9.96196 6.31263 10.0505C7.89071 10.3712 9.46851 10.6931 11.0465 11.0123Z" fill="#7487FF"/>
<path id="Vector_5" d="M28.0847 13.3004C29.5803 13.5334 30.9213 14.8786 31.1445 16.3629C31.4547 17.9496 31.7657 19.5365 32.0761 21.1232C32.1775 21.6234 32.1505 22.1501 31.9158 22.5792C31.6541 23.0973 31.0972 23.4439 30.4887 23.4382C30.3476 23.4356 30.2066 23.4265 30.0646 23.4113C28.3462 23.2004 26.6295 22.9822 24.9114 22.7757C23.2811 22.5985 21.7964 21.0817 21.6548 19.4648C21.4671 18.0265 21.279 16.5879 21.0875 15.1495C21.0385 14.7374 20.9621 14.3246 20.9547 13.9126C20.9453 13.2158 21.4103 12.5971 22.0502 12.3808C22.4537 12.2322 22.9127 12.25 23.3509 12.3385C24.929 12.6593 26.5068 12.9812 28.0847 13.3004Z" fill="#7487FF"/>
<path id="Vector_6" d="M5.29833 6.87463C5.4745 5.03602 7.08757 3.69427 8.94069 3.67139C8.96815 4.59323 9.14818 5.52062 9.26811 6.44448C9.73199 9.67044 10.1881 12.8967 10.6434 16.1221C11.0001 19.7468 14.3627 23.1784 18.0173 23.6151C21.869 24.1178 25.7208 24.6477 29.5732 25.1622C29.8909 25.1987 30.207 25.2223 30.5239 25.2325C30.4381 27.0679 29.1427 28.6626 27.2759 28.8561C26.3162 28.8923 25.3443 28.6953 24.3782 28.5826C21.5501 28.2112 18.7198 27.8203 15.8893 27.4531C14.68 27.2768 13.4363 27.209 12.2728 26.6806C9.60441 25.4885 7.39932 22.8582 7.02643 20.0256C6.55702 16.706 6.07641 13.3847 5.60862 10.0635C5.46673 9.00088 5.23278 7.92847 5.29672 6.87624L5.29833 6.87463Z" fill="#7487FF"/>
<path id="Vector_7" d="M14.4608 7.62216C15.9563 7.85511 17.2974 9.20047 17.5204 10.6847C17.8308 12.2714 18.1418 13.8582 18.452 15.4449C18.5536 15.9451 18.5264 16.4719 18.2918 16.9009C18.0301 17.419 17.4731 17.7656 16.8648 17.7599C16.7237 17.7573 16.5825 17.7483 16.4405 17.7331C14.7223 17.5221 13.0055 17.3039 11.2874 17.0974C9.65716 16.9202 8.17246 15.4035 8.03072 13.7865C7.84306 12.3483 7.655 10.9096 7.46349 9.47125C7.41441 9.05918 7.33815 8.6463 7.33071 8.23437C7.32124 7.53755 7.78623 6.91884 8.4263 6.70262C8.82967 6.55395 9.28863 6.57179 9.72696 6.66035C11.305 6.98108 12.8827 7.30298 14.4608 7.62216Z" fill="#E8EAFD"/>
<path id="Vector_8" d="M31.4994 9.91022C32.9949 10.1432 34.336 11.4885 34.559 12.9727C34.8694 14.5596 35.1804 16.1463 35.4906 17.733C35.5921 18.2332 35.5651 18.76 35.3304 19.189C35.0687 19.7071 34.5118 20.0537 33.9034 20.048C33.7623 20.0454 33.6212 20.0363 33.4791 20.0211C31.7609 19.8101 30.0441 19.592 28.326 19.3855C26.6956 19.2083 25.211 17.6915 25.0693 16.0746C24.8817 14.6363 24.6936 13.1977 24.5021 11.7593C24.453 11.3474 24.3768 10.9344 24.3693 10.5224C24.3599 9.8256 24.8248 9.20689 25.4649 8.99062C25.8683 8.84201 26.3272 8.85991 26.7656 8.94845C28.3437 9.26913 29.9213 9.59103 31.4994 9.91022Z" fill="#D9DDFF"/>
<path id="Vector_9" d="M24.8954 2.46956C28.2503 3.02712 31.2863 6.072 31.8222 9.40148C32.5555 12.9624 33.2907 16.5234 34.0241 20.0843C34.2637 21.207 34.2159 22.386 33.7006 23.3414C33.1272 24.4953 31.8884 25.258 30.5256 25.2308C30.2095 25.2215 29.8934 25.198 29.5749 25.1605C25.7217 24.6468 21.8717 24.117 18.0191 23.6134C14.3636 23.1775 11.0019 19.7451 10.6451 16.1205C10.1898 12.895 9.73373 9.66873 9.26985 6.44279C9.14992 5.51893 8.96907 4.59234 8.94243 3.66969C8.90432 2.10885 9.93057 0.734372 11.3588 0.265504C12.2587 -0.0577907 13.2869 -0.00682155 14.2705 0.201992C17.8125 0.958141 21.3538 1.7168 24.8954 2.46956Z" fill="#E8EAFD"/>
<path id="Vector_10" d="M25.585 11.3756C26.2063 11.5141 26.7885 12.2015 26.9132 12.9407C27.0759 13.732 27.239 14.5233 27.4018 15.3146C27.4546 15.5643 27.4551 15.8249 27.3678 16.0339C27.2714 16.2868 27.0496 16.4501 26.7986 16.4379C26.7404 16.4345 26.6822 16.4278 26.6232 16.4181C25.9106 16.2871 25.1985 16.1526 24.4861 16.0239C23.8103 15.9111 23.1652 15.1365 23.0712 14.3327C22.9623 13.6169 22.8531 12.9008 22.7426 12.1849C22.7133 11.9798 22.6728 11.774 22.6606 11.5697C22.6413 11.2242 22.8193 10.9245 23.0783 10.8272C23.2413 10.7596 23.4307 10.7756 23.6134 10.8262C24.2707 11.0094 24.9278 11.1931 25.585 11.3756Z" fill="#295BFF"/>
<path id="Vector_11" d="M18.9883 10.0518C19.6307 10.1645 20.2126 10.8522 20.316 11.6174C20.4572 12.435 20.5988 13.2528 20.74 14.0704C20.7862 14.3281 20.7773 14.6001 20.6788 14.8229C20.5693 15.0917 20.3323 15.2735 20.0714 15.2736C20.0109 15.273 19.9503 15.269 19.8894 15.262C19.1515 15.1618 18.4143 15.0579 17.6766 14.96C16.9767 14.8768 16.3323 14.1013 16.2632 13.2671C16.1753 12.5256 16.0871 11.7837 15.9977 11.0422C15.9745 10.8297 15.9396 10.6168 15.9343 10.4042C15.9266 10.0445 16.1228 9.72272 16.3961 9.60788C16.5684 9.52896 16.7652 9.53588 16.9536 9.5794C17.6319 9.73696 18.3101 9.89506 18.9883 10.0518Z" fill="#295BFF"/>
<path id="Vector_12" d="M149.572 23.5929C148.582 23.5929 147.694 23.4206 146.907 23.0759C146.122 22.7167 145.496 22.2356 145.03 21.6324C144.578 21.0291 144.331 20.3612 144.287 19.6287H147.366C147.425 20.0884 147.65 20.469 148.044 20.7705C148.451 21.0722 148.953 21.223 149.55 21.223C150.132 21.223 150.583 21.1082 150.904 20.8783C151.239 20.6485 151.405 20.354 151.405 19.995C151.405 19.6072 151.202 19.32 150.795 19.1333C150.401 18.9322 149.768 18.7167 148.895 18.4869C147.992 18.2714 147.25 18.0488 146.668 17.819C146.1 17.5893 145.606 17.2373 145.183 16.7634C144.775 16.2893 144.571 15.6501 144.571 14.8459C144.571 14.1852 144.761 13.5819 145.14 13.0362C145.532 12.4904 146.085 12.0595 146.798 11.7434C147.526 11.4275 148.378 11.2695 149.354 11.2695C150.795 11.2695 151.945 11.6286 152.803 12.3467C153.662 13.0505 154.135 14.0057 154.222 15.2122H151.296C151.252 14.7381 151.049 14.3647 150.685 14.0918C150.336 13.8046 149.863 13.661 149.266 13.661C148.713 13.661 148.283 13.7615 147.978 13.9625C147.687 14.1636 147.541 14.4438 147.541 14.8028C147.541 15.205 147.745 15.5137 148.153 15.7292C148.56 15.9303 149.194 16.1385 150.052 16.354C150.926 16.5695 151.646 16.7921 152.214 17.0218C152.781 17.2516 153.269 17.6107 153.677 18.0991C154.099 18.5731 154.318 19.205 154.331 19.995C154.331 20.6844 154.135 21.3021 153.742 21.8478C153.364 22.3936 152.811 22.8245 152.083 23.1404C151.37 23.4421 150.533 23.5929 149.572 23.5929Z" fill="#EFEFF0"/>
<path id="Vector_13" d="M139.354 23.3995L135.249 18.315V23.3995H132.192V7.45654H135.249V16.5268L139.31 11.4639H143.283L137.956 17.4532L143.327 23.3995H139.354Z" fill="#EFEFF0"/>
<path id="Vector_14" d="M118.271 17.4312C118.271 16.196 118.525 15.1188 119.035 14.1996C119.544 13.266 120.25 12.5478 121.153 12.0451C122.055 11.528 123.089 11.2695 124.253 11.2695C125.753 11.2695 126.99 11.643 127.966 12.3898C128.955 13.1223 129.617 14.1564 129.952 15.4922H126.656C126.481 14.9752 126.182 14.573 125.76 14.2857C125.353 13.9841 124.843 13.8333 124.231 13.8333C123.358 13.8333 122.667 14.1493 122.157 14.7813C121.648 15.3989 121.393 16.2821 121.393 17.4312C121.393 18.5659 121.648 19.4492 122.157 20.0812C122.667 20.6988 123.358 21.0076 124.231 21.0076C125.469 21.0076 126.277 20.4618 126.656 19.3703H129.952C129.617 20.6629 128.955 21.6899 127.966 22.4511C126.975 23.2123 125.738 23.5929 124.253 23.5929C123.089 23.5929 122.055 23.3415 121.153 22.8389C120.25 22.3217 119.544 21.6036 119.035 20.6844C118.525 19.7509 118.271 18.6664 118.271 17.4312Z" fill="#EFEFF0"/>
<path id="Vector_15" d="M103.472 17.3882C103.472 16.1817 103.713 15.1116 104.193 14.178C104.688 13.2444 105.35 12.5262 106.18 12.0236C107.024 11.5208 107.963 11.2695 108.996 11.2695C109.899 11.2695 110.685 11.4491 111.355 11.8081C112.039 12.1672 112.585 12.6196 112.992 13.1654V11.4634H116.071V23.399H112.992V21.6539C112.599 22.2141 112.053 22.6809 111.355 23.0543C110.671 23.4134 109.877 23.5929 108.975 23.5929C107.956 23.5929 107.024 23.3343 106.18 22.8173C105.35 22.3003 104.688 21.5749 104.193 20.6413C103.713 19.6934 103.472 18.6089 103.472 17.3882ZM112.992 17.4312C112.992 16.6987 112.847 16.0739 112.556 15.5569C112.265 15.0255 111.871 14.6233 111.377 14.3503C110.882 14.0632 110.35 13.9194 109.783 13.9194C109.215 13.9194 108.691 14.056 108.21 14.3288C107.73 14.6017 107.337 15.0039 107.031 15.5353C106.74 16.0523 106.595 16.6699 106.595 17.3882C106.595 18.1063 106.74 18.7383 107.031 19.284C107.337 19.8154 107.73 20.2248 108.21 20.5121C108.705 20.7993 109.229 20.9429 109.783 20.9429C110.35 20.9429 110.882 20.8065 111.377 20.5337C111.871 20.2463 112.265 19.8442 112.556 19.3272C112.847 18.7956 112.992 18.1638 112.992 17.4312Z" fill="#EFEFF0"/>
<path id="Vector_16" d="M99.3523 13.9414V19.7153C99.3523 20.1175 99.4469 20.4119 99.6362 20.5986C99.84 20.7709 100.175 20.8572 100.641 20.8572H102.06V23.3994H100.138C97.5618 23.3994 96.2736 22.1641 96.2736 19.6938V13.9414H94.8325V11.4638H96.2736V8.51221H99.3523V11.4638H102.06V13.9414H99.3523Z" fill="#EFEFF0"/>
<path id="Vector_17" d="M87.7502 23.5497C86.6874 23.5497 85.7268 23.3702 84.868 23.0111C84.0237 22.6521 83.3541 22.1349 82.8591 21.4599C82.3642 20.7848 82.1094 19.9877 82.095 19.0685H85.3701C85.4138 19.6861 85.6321 20.1744 86.0252 20.5336C86.4328 20.8926 86.9859 21.0722 87.6846 21.0722C88.3979 21.0722 88.9583 20.907 89.3659 20.5766C89.7735 20.2319 89.9772 19.7866 89.9772 19.2408C89.9772 18.7955 89.839 18.4293 89.5624 18.1421C89.2859 17.8548 88.9365 17.6322 88.5144 17.4742C88.1068 17.3018 87.5391 17.1151 86.8112 16.9141C85.8214 16.6267 85.0135 16.3467 84.3876 16.0738C83.7762 15.7866 83.2448 15.3629 82.7937 14.8027C82.357 14.2282 82.1385 13.467 82.1385 12.5189C82.1385 11.6285 82.3642 10.8529 82.8155 10.1922C83.2667 9.53154 83.8999 9.02876 84.7151 8.68408C85.5302 8.32503 86.4619 8.14551 87.5099 8.14551C89.0821 8.14551 90.3557 8.52612 91.331 9.28734C92.3209 10.0342 92.8667 11.0827 92.9686 12.4328H89.6061C89.577 11.9157 89.3513 11.4921 88.9292 11.1616C88.5216 10.817 87.9758 10.6446 87.2916 10.6446C86.6948 10.6446 86.2144 10.7954 85.8505 11.0971C85.5011 11.3987 85.3264 11.8368 85.3264 12.4113C85.3264 12.8134 85.4575 13.1509 85.7195 13.4239C85.9961 13.6823 86.3309 13.8978 86.7239 14.0703C87.1315 14.2282 87.6992 14.4149 88.427 14.6304C89.4169 14.9176 90.2247 15.2049 90.8506 15.4921C91.4766 15.7794 92.0152 16.2103 92.4664 16.7848C92.9177 17.3593 93.1434 18.1134 93.1434 19.0469C93.1434 19.8513 92.9322 20.5981 92.5101 21.2876C92.088 21.977 91.4694 22.5299 90.6542 22.9465C89.839 23.3486 88.8709 23.5497 87.7502 23.5497Z" fill="#EFEFF0"/>
<path id="Vector_18" d="M77.5816 13.9414V19.7153C77.5816 20.1175 77.6761 20.4119 77.8654 20.5986C78.0692 20.7709 78.404 20.8572 78.8698 20.8572H80.289V23.3994H78.3675C75.7911 23.3994 74.5028 22.1641 74.5028 19.6938V13.9414H73.0618V11.4638H74.5028V8.51221H77.5816V11.4638H80.289V13.9414H77.5816Z" fill="#EFEFF0"/>
<path id="Vector_19" d="M65.4699 23.5929C64.3055 23.5929 63.2574 23.3415 62.3258 22.8389C61.3942 22.3217 60.659 21.5964 60.1204 20.6629C59.5965 19.7293 59.3345 18.652 59.3345 17.4312C59.3345 16.2104 59.6037 15.1331 60.1423 14.1996C60.6955 13.266 61.4451 12.5478 62.3913 12.0451C63.3374 11.528 64.3929 11.2695 65.5574 11.2695C66.7218 11.2695 67.7772 11.528 68.7234 12.0451C69.6696 12.5478 70.4119 13.266 70.9505 14.1996C71.5036 15.1331 71.7802 16.2104 71.7802 17.4312C71.7802 18.652 71.4964 19.7293 70.9287 20.6629C70.3755 21.5964 69.6186 22.3217 68.6579 22.8389C67.7117 23.3415 66.649 23.5929 65.4699 23.5929ZM65.4699 20.9644C66.0231 20.9644 66.5399 20.8352 67.0203 20.5766C67.5152 20.3038 67.9082 19.9017 68.1994 19.3703C68.4905 18.8388 68.6361 18.1924 68.6361 17.4312C68.6361 16.2965 68.3304 15.4276 67.719 14.8244C67.1222 14.2068 66.387 13.8979 65.5136 13.8979C64.6402 13.8979 63.9052 14.2068 63.3083 14.8244C62.7261 15.4276 62.4349 16.2965 62.4349 17.4312C62.4349 18.5659 62.7188 19.442 63.2865 20.0596C63.8688 20.6629 64.5965 20.9644 65.4699 20.9644Z" fill="#EFEFF0"/>
<path id="Vector_20" d="M54.7146 15.6863C55.5735 15.8443 56.2794 16.268 56.8327 16.9575C57.3857 17.6469 57.6623 18.4369 57.6623 19.3274C57.6623 20.1318 57.4585 20.8427 57.0509 21.4603C56.6579 22.0636 56.0829 22.5375 55.326 22.8823C54.569 23.227 53.6739 23.3993 52.6403 23.3993H46.0681V8.36133H52.3564C53.39 8.36133 54.2779 8.52648 55.0203 8.85679C55.7773 9.18709 56.345 9.64675 56.7234 10.2356C57.1165 10.8245 57.3129 11.4924 57.3129 12.2393C57.3129 13.1154 57.0728 13.848 56.5924 14.4369C56.1266 15.0257 55.5007 15.4421 54.7146 15.6863ZM49.125 14.5661H51.9197C52.6476 14.5661 53.2081 14.4081 53.6011 14.092C53.9941 13.7617 54.1906 13.2949 54.1906 12.6918C54.1906 12.0885 53.9941 11.6217 53.6011 11.2914C53.2081 10.9609 52.6476 10.7958 51.9197 10.7958H49.125V14.5661ZM52.2036 20.9432C52.946 20.9432 53.521 20.7708 53.9286 20.4261C54.3507 20.0815 54.5618 19.5931 54.5618 18.9612C54.5618 18.3148 54.3435 17.812 53.9068 17.453C53.4701 17.0796 52.8805 16.8929 52.1381 16.8929H49.125V20.9432H52.2036Z" fill="#EFEFF0"/>
</g>
<defs>
<clipPath id="clip0_1110_2012">
<rect width="153.806" height="32" fill="white" transform="translate(0.488037)"/>
</clipPath>
</defs>
</svg>
