<svg width="34" height="35" viewBox="0 0 34 35" fill="none" xmlns="http://www.w3.org/2000/svg">
<g id="majesticons:camera">
<path id="Vector" fill-rule="evenodd" clip-rule="evenodd" d="M10.7285 6.33407C11.1166 5.75192 11.6424 5.27457 12.2592 4.9444C12.8761 4.61423 13.5649 4.44146 14.2645 4.44141H19.7329C20.4325 4.44146 21.1213 4.61423 21.7382 4.9444C22.355 5.27457 22.8808 5.75192 23.2689 6.33407L24.4192 8.06099C24.5486 8.25495 24.7239 8.41398 24.9295 8.52395C25.1351 8.63392 25.3647 8.69144 25.5979 8.69141H26.9154C28.0425 8.69141 29.1235 9.13917 29.9206 9.9362C30.7176 10.7332 31.1654 11.8142 31.1654 12.9414V25.6914C31.1654 26.8186 30.7176 27.8996 29.9206 28.6966C29.1235 29.4936 28.0425 29.9414 26.9154 29.9414H7.08203C5.95486 29.9414 4.87386 29.4936 4.07683 28.6966C3.2798 27.8996 2.83203 26.8186 2.83203 25.6914V12.9414C2.83203 11.8142 3.2798 10.7332 4.07683 9.9362C4.87386 9.13917 5.95486 8.69141 7.08203 8.69141H8.39953C8.6327 8.69144 8.86228 8.63392 9.06789 8.52395C9.2735 8.41398 9.44879 8.25495 9.5782 8.06099L10.7285 6.33407ZM14.1654 18.6081C14.1654 17.8566 14.4639 17.136 14.9952 16.6046C15.5266 16.0733 16.2473 15.7747 16.9987 15.7747C17.7501 15.7747 18.4708 16.0733 19.0022 16.6046C19.5335 17.136 19.832 17.8566 19.832 18.6081C19.832 19.3595 19.5335 20.0802 19.0022 20.6115C18.4708 21.1429 17.7501 21.4414 16.9987 21.4414C16.2473 21.4414 15.5266 21.1429 14.9952 20.6115C14.4639 20.0802 14.1654 19.3595 14.1654 18.6081ZM16.9987 12.9414C15.4958 12.9414 14.0545 13.5384 12.9918 14.6011C11.9291 15.6638 11.332 17.1052 11.332 18.6081C11.332 20.111 11.9291 21.5523 12.9918 22.615C14.0545 23.6777 15.4958 24.2747 16.9987 24.2747C18.5016 24.2747 19.9429 23.6777 21.0056 22.615C22.0683 21.5523 22.6654 20.111 22.6654 18.6081C22.6654 17.1052 22.0683 15.6638 21.0056 14.6011C19.9429 13.5384 18.5016 12.9414 16.9987 12.9414Z" fill="white"/>
</g>
</svg>
