<svg width="42" height="42" viewBox="0 0 42 42" fill="none" xmlns="http://www.w3.org/2000/svg">
<g id="fluent:chat-multiple-20-regular">
<path id="Vector" d="M17.9306 4.19922C15.5504 4.19903 13.2115 4.82123 11.146 6.00409C9.08053 7.18694 7.36026 8.88933 6.15588 10.9423C4.95151 12.9953 4.30489 15.3276 4.28021 17.7077C4.25552 20.0877 4.85362 22.4329 6.01516 24.5104L4.34356 28.8826C4.2046 29.2461 4.16935 29.641 4.24174 30.0233C4.31414 30.4056 4.49133 30.7603 4.75355 31.0478C5.01577 31.3352 5.3527 31.5442 5.72676 31.6514C6.10082 31.7585 6.4973 31.7597 6.87196 31.6546L12.0947 30.1909C13.9447 31.065 15.9675 31.5121 18.0136 31.4989C20.0596 31.4858 22.0766 31.0129 23.9152 30.1151C25.7538 29.2174 27.3671 27.9177 28.6357 26.3124C29.9043 24.707 30.7958 22.837 31.2442 20.8406C31.6926 18.8442 31.6865 16.7726 31.2263 14.7789C30.766 12.7853 29.8635 10.9206 28.5854 9.32274C27.3073 7.72493 25.6863 6.43488 23.8424 5.54803C21.9985 4.66118 19.9767 4.20021 17.9306 4.19922ZM6.38266 17.8492C6.38359 15.3322 7.20671 12.8844 8.72677 10.8783C10.2468 8.87209 12.3806 7.41738 14.8035 6.73547C17.2263 6.05355 19.8056 6.18176 22.1489 7.10058C24.4922 8.0194 26.4713 9.67854 27.7849 11.8256C29.0985 13.9726 29.6748 16.4899 29.4261 18.9946C29.1775 21.4993 28.1174 23.8542 26.4073 25.701C24.6971 27.5478 22.4305 28.7854 19.9523 29.2256C17.4741 29.6657 14.9199 29.2842 12.6785 28.1392L12.3131 27.9502L6.30706 29.6323L8.34196 24.3067L8.07316 23.8657C6.96393 22.0551 6.38015 19.9726 6.38266 17.8492ZM24.1529 37.7992C22.1879 37.8014 20.2458 37.3783 18.4599 36.5591C16.6739 35.7399 15.0863 34.5439 13.8062 33.0532C15.0122 33.3799 16.253 33.5611 17.5022 33.5929C19.4468 34.9665 21.7699 35.7024 24.1508 35.6992C26.045 35.6992 27.83 35.2435 29.405 34.4392L29.7704 34.2502L35.7764 35.9323L33.7415 30.6067L34.0103 30.1657C35.0813 28.4143 35.7008 26.3563 35.7008 24.1492C35.704 21.8173 34.998 19.5395 33.6764 17.6182C33.6591 16.3689 33.4934 15.1261 33.1829 13.9159C34.6358 15.1953 35.7993 16.7699 36.5956 18.5345C37.3919 20.2991 37.8027 22.2132 37.8008 24.1492C37.8008 26.5663 37.1708 28.8385 36.0683 30.8104L37.7378 35.1826C37.8767 35.5461 37.912 35.941 37.8396 36.3233C37.7672 36.7056 37.59 37.0603 37.3278 37.3478C37.0655 37.6352 36.7286 37.8442 36.3546 37.9514C35.9805 38.0585 35.584 38.0597 35.2094 37.9546L29.9867 36.4909C28.2164 37.3309 26.2361 37.7992 24.1487 37.7992" fill="#87878C"/>
</g>
</svg>
