<svg width="18" height="18" viewBox="0 0 18 18" fill="none" xmlns="http://www.w3.org/2000/svg">
<g id="Attach" clip-path="url(#clip0_1110_2088)">
<path id="Vector" d="M11.121 5.8162L6.87897 10.059C6.80734 10.1281 6.7502 10.2109 6.7109 10.3024C6.67159 10.3939 6.6509 10.4923 6.65003 10.5919C6.64917 10.6915 6.66814 10.7902 6.70585 10.8824C6.74357 10.9746 6.79925 11.0583 6.86967 11.1287C6.94009 11.1992 7.02383 11.2549 7.116 11.2926C7.20818 11.3303 7.30694 11.3493 7.40652 11.3484C7.50611 11.3475 7.60452 11.3268 7.69602 11.2875C7.78753 11.2482 7.87029 11.1911 7.93947 11.1195L12.1822 6.87745C12.6042 6.45546 12.8413 5.88311 12.8413 5.28633C12.8413 4.68954 12.6042 4.11719 12.1822 3.6952C11.7602 3.27321 11.1879 3.03614 10.5911 3.03614C9.99431 3.03614 9.42196 3.27321 8.99997 3.6952L4.75722 7.93795C4.40178 8.28455 4.11869 8.69827 3.92439 9.15512C3.73009 9.61198 3.62843 10.1029 3.62532 10.5993C3.62221 11.0958 3.71771 11.5879 3.90627 12.0471C4.09483 12.5064 4.37271 12.9236 4.72378 13.2746C5.07485 13.6257 5.49213 13.9035 5.95141 14.092C6.41069 14.2805 6.90283 14.3759 7.39927 14.3727C7.89572 14.3695 8.38659 14.2678 8.84342 14.0735C9.30024 13.8791 9.71392 13.5959 10.0605 13.2405L14.3032 8.99845L15.3637 10.059L11.121 14.3017C10.6334 14.7892 10.0547 15.176 9.41766 15.4398C8.78067 15.7037 8.09795 15.8395 7.40847 15.8395C6.719 15.8395 6.03627 15.7037 5.39928 15.4398C4.76229 15.176 4.1835 14.7892 3.69597 14.3017C3.20844 13.8142 2.82171 13.2354 2.55786 12.5984C2.29401 11.9614 2.1582 11.2787 2.1582 10.5892C2.1582 9.89973 2.29401 9.217 2.55786 8.58001C2.82171 7.94302 3.20844 7.36423 3.69597 6.8767L7.93947 2.6347C8.64673 1.95161 9.59399 1.57363 10.5772 1.58217C11.5605 1.59072 12.501 1.9851 13.1963 2.68038C13.8916 3.37566 14.286 4.31621 14.2945 5.29945C14.303 6.28268 13.9251 7.22994 13.242 7.9372L8.99997 12.1814C8.79097 12.3904 8.54286 12.5561 8.26981 12.6692C7.99676 12.7823 7.70411 12.8404 7.40858 12.8404C7.11305 12.8404 6.82041 12.7821 6.54739 12.669C6.27436 12.5559 6.02629 12.3901 5.81735 12.1811C5.6084 11.9721 5.44266 11.724 5.32959 11.4509C5.21653 11.1779 5.15836 10.8852 5.15839 10.5897C5.15843 10.2942 5.21667 10.0015 5.3298 9.72849C5.44293 9.45547 5.60872 9.2074 5.81772 8.99845L10.0605 4.7557L11.121 5.8162Z" fill="#2B2B2F"/>
</g>
<defs>
<clipPath id="clip0_1110_2088">
<rect width="18" height="18" fill="white"/>
</clipPath>
</defs>
</svg>
