<svg width="20" height="20" viewBox="0 0 20 20" fill="none" xmlns="http://www.w3.org/2000/svg">
<g id="mingcute:add-fill" clip-path="url(#clip0_2801_2912)">
<g id="Group">
<path id="Vector" d="M8.74968 16.6654C8.74968 16.9969 8.88137 17.3148 9.11579 17.5492C9.35021 17.7837 9.66815 17.9154 9.99968 17.9154C10.3312 17.9154 10.6491 17.7837 10.8836 17.5492C11.118 17.3148 11.2497 16.9969 11.2497 16.6654V11.2487H16.6663C16.9979 11.2487 17.3158 11.117 17.5502 10.8826C17.7846 10.6482 17.9163 10.3302 17.9163 9.9987C17.9163 9.66718 17.7846 9.34924 17.5502 9.11482C17.3158 8.88039 16.9979 8.7487 16.6663 8.7487H11.2497V3.33203C11.2497 3.00051 11.118 2.68257 10.8836 2.44815C10.6491 2.21373 10.3312 2.08203 9.99968 2.08203C9.66815 2.08203 9.35021 2.21373 9.11579 2.44815C8.88137 2.68257 8.74968 3.00051 8.74968 3.33203V8.7487H3.33301C3.00149 8.7487 2.68354 8.88039 2.44912 9.11482C2.2147 9.34924 2.08301 9.66718 2.08301 9.9987C2.08301 10.3302 2.2147 10.6482 2.44912 10.8826C2.68354 11.117 3.00149 11.2487 3.33301 11.2487H8.74968V16.6654Z" fill="white"/>
</g>
</g>
<defs>
<clipPath id="clip0_2801_2912">
<rect width="20" height="20" fill="white"/>
</clipPath>
</defs>
</svg>
