<svg width="26" height="25" viewBox="0 0 26 25" fill="none" xmlns="http://www.w3.org/2000/svg">
<path d="M10.1912 12.2822C12.558 12.2822 14.4827 10.4459 14.4827 8.18798C14.4827 5.93001 12.558 4.09375 10.1912 4.09375C7.82439 4.09375 5.89963 5.93001 5.89963 8.18798C5.89963 10.4459 7.82439 12.2822 10.1912 12.2822ZM11.8005 13.3058H8.58185C5.03167 13.3058 2.14453 16.0602 2.14453 19.4471V20.4707H18.2378V19.4471C18.2378 16.0602 15.3507 13.3058 11.8005 13.3058Z" fill="#2B2B2F"/>
<path d="M17.813 11.3078C18.4664 10.2455 18.7486 9.01229 18.6187 7.78678C18.4267 5.96075 17.3581 4.34661 15.6114 3.24219L14.4259 4.94743C15.6265 5.70691 16.3571 6.78881 16.4837 7.99149C16.5421 8.55046 16.4691 9.1148 16.2702 9.64349C16.0712 10.1722 15.7513 10.6519 15.3336 11.0478L14.0547 12.2679L15.7906 12.7541C20.3311 14.0233 20.3836 18.3796 20.3836 18.4236H22.5294C22.5294 16.5924 21.5037 13.0141 17.813 11.3078Z" fill="#2B2B2F"/>
</svg>
